<?xml version="1.0" ?><svg fill="none" height="513" viewBox="0 0 513 513" width="513" xmlns="http://www.w3.org/2000/svg"><path d="M379.505 429.748H335.955C333.775 429.748 331.695 428.858 330.185 427.288C328.675 425.718 327.875 423.598 327.965 421.418L333.975 274.268H325.055C320.635 274.268 317.055 270.688 317.055 266.268C317.055 261.848 320.635 258.268 325.055 258.268H334.625L335.695 231.858C335.865 227.568 339.395 224.178 343.685 224.178H349.765V217.958H162.605V224.178H168.685C172.975 224.178 176.505 227.568 176.675 231.858L177.745 258.268H187.315C191.735 258.268 195.315 261.848 195.315 266.268C195.315 270.688 191.735 274.268 187.315 274.268H178.395L184.335 421.428C184.425 423.608 183.625 425.718 182.115 427.288C180.605 428.858 178.525 429.748 176.345 429.748H132.795C130.615 429.748 128.535 428.858 127.025 427.288C125.515 425.718 124.715 423.598 124.805 421.418L130.815 274.268H121.895C117.475 274.268 113.895 270.688 113.895 266.268C113.895 261.848 117.475 258.268 121.895 258.268H131.465L132.535 231.858C132.705 227.568 136.235 224.178 140.525 224.178H146.605V217.958H88.9752C84.5552 217.958 80.9752 214.378 80.9752 209.958C80.9752 205.538 84.5552 201.958 88.9752 201.958H146.605V187.598H131.695C127.275 187.598 123.695 184.018 123.695 179.598V173.038H74.9652C71.4552 173.038 68.3653 170.758 67.3253 167.408L61.1952 147.638C52.5152 146.198 43.7052 144.618 34.9452 142.948C32.2952 142.438 30.0853 140.638 29.0553 138.148L10.9052 94.1878C9.76515 91.4378 10.2552 88.2779 12.1652 85.9979C14.0752 83.7179 17.1052 82.6778 20.0052 83.3178C94.8952 99.6778 174.305 107.978 256.015 107.978H256.325C338.015 107.978 417.395 99.6778 492.265 83.3178C495.175 82.6878 498.195 83.7179 500.105 85.9979C502.015 88.2779 502.505 91.4378 501.365 94.1878L483.215 138.148C482.185 140.638 479.975 142.448 477.325 142.948C468.585 144.618 459.785 146.198 451.085 147.638L444.955 167.408C443.915 170.758 440.815 173.038 437.315 173.038H388.655V179.598C388.655 184.018 385.075 187.598 380.655 187.598H365.745V201.958H423.375C427.795 201.958 431.375 205.538 431.375 209.958C431.375 214.378 427.795 217.958 423.375 217.958H365.745V224.178H371.825C376.115 224.178 379.645 227.568 379.815 231.858L380.885 258.268H390.455C394.875 258.268 398.455 261.848 398.455 266.268C398.455 270.688 394.875 274.268 390.455 274.268H381.535L387.475 421.428C387.565 423.608 386.765 425.718 385.255 427.288C383.745 428.858 381.665 429.748 379.485 429.748H379.505ZM344.295 413.748H371.175L365.235 266.608V266.588L364.165 240.178H351.375L350.305 266.588C350.305 266.588 350.305 266.598 350.305 266.608L344.295 413.748ZM141.135 413.748H168.015L162.075 266.588C162.075 266.588 162.075 266.568 162.075 266.558L161.005 240.168H148.215L147.145 266.578V266.598L141.135 413.738V413.748ZM264.195 201.958H349.775V187.598H334.865C330.445 187.598 326.865 184.018 326.865 179.598V173.048L264.195 173.098V201.958ZM162.615 201.958H248.195V173.098L185.525 173.048V179.598C185.525 184.018 181.945 187.598 177.525 187.598H162.615V201.958ZM357.775 171.598H372.685V165.038C372.685 160.618 376.265 157.038 380.685 157.038H431.445L437.295 138.168C438.195 135.268 440.665 133.118 443.665 132.638C452.395 131.228 461.275 129.678 470.105 128.028L480.815 102.078C409.225 116.608 333.785 123.968 256.345 123.968C256.235 123.968 256.135 123.968 256.025 123.968C178.555 123.968 103.095 116.608 31.4852 102.078L42.2052 128.038C51.0652 129.698 59.9352 131.248 68.6552 132.648C71.6552 133.128 74.1253 135.278 75.0253 138.178L80.8754 157.048H131.705C136.125 157.048 139.705 160.628 139.705 165.048V171.608H169.525V165.048C169.525 162.928 170.365 160.888 171.875 159.388C173.375 157.888 175.405 157.048 177.525 157.048L256.195 157.108L334.855 157.048C336.975 157.048 339.005 157.888 340.505 159.388C342.005 160.888 342.855 162.928 342.855 165.048V171.608H357.765L357.775 171.598Z" fill="black"/></svg>