<?xml version="1.0" ?><svg fill="none" height="513" viewBox="0 0 513 513" width="513" xmlns="http://www.w3.org/2000/svg"><path d="M257.347 449.345C240.407 449.345 223.187 447.015 205.757 442.355C158.077 429.595 120.587 402.485 94.3369 361.775C94.2869 361.705 94.237 361.635 94.187 361.555L93.0171 359.825C92.9271 359.695 92.8468 359.555 92.7568 359.425C92.0668 358.435 91.3968 357.415 90.7368 356.375C90.5468 356.075 90.377 355.765 90.227 355.435L89.937 355.005C89.687 354.635 89.4769 354.245 89.2969 353.855C78.3369 334.035 75.7968 312.825 81.7568 290.785C87.8168 268.195 101.197 250.795 121.507 239.095C137.667 229.815 154.847 226.115 172.557 228.105C172.677 228.105 172.807 228.125 172.927 228.135C177.277 228.635 181.757 229.505 186.227 230.705C208.857 236.745 226.277 250.065 237.997 270.305C249.727 290.575 252.597 312.305 246.527 334.905C242.037 351.665 233.467 365.655 221.077 376.465C220.847 376.665 220.607 376.845 220.357 377.025L220.197 377.135C220.077 377.235 219.987 377.295 219.877 377.365C219.527 377.715 219.297 378.075 219.157 378.535C219.137 378.585 219.127 378.635 219.107 378.695L218.977 379.075C218.977 379.075 218.977 379.105 218.967 379.125C218.867 379.645 218.867 380.155 218.967 380.695C219.007 380.835 219.047 380.975 219.087 381.125L219.107 381.205C219.267 381.705 219.497 382.095 219.827 382.445C220.157 382.645 220.497 382.885 220.767 383.115C237.057 396.565 256.567 406.395 278.747 412.335C295.847 416.895 312.817 418.685 329.177 417.665C333.007 417.425 336.517 419.975 337.447 423.735C338.377 427.485 336.477 431.365 332.947 432.955C308.587 443.875 283.287 449.345 257.327 449.345H257.347ZM107.217 352.275C107.347 352.445 107.467 352.625 107.587 352.805C131.627 390.235 166.047 415.165 209.887 426.895C236.247 433.945 262.057 435.195 287.017 430.655C282.897 429.845 278.767 428.895 274.637 427.795C250.417 421.305 229.037 410.555 211.057 395.835C210.797 395.665 210.537 395.495 210.287 395.315C210.017 395.125 209.767 394.915 209.527 394.695C206.747 392.265 204.807 389.215 203.747 385.625C203.717 385.535 203.697 385.435 203.667 385.345C203.667 385.345 203.667 385.335 203.667 385.325C203.617 385.165 203.567 384.975 203.517 384.815C202.697 381.545 202.707 378.245 203.517 374.995C203.577 374.765 203.647 374.535 203.727 374.305C203.747 374.245 203.767 374.195 203.777 374.135L203.967 373.585C205.047 370.275 206.947 367.425 209.627 365.095C209.797 364.955 209.967 364.815 210.137 364.685C210.307 364.555 210.487 364.425 210.667 364.305C210.737 364.255 210.807 364.205 210.877 364.155C220.797 355.385 227.417 344.465 231.087 330.765C236.087 312.165 233.817 295.015 224.157 278.325C214.507 261.655 200.747 251.135 182.097 246.165C178.447 245.185 174.837 244.475 171.337 244.055C171.227 244.055 171.117 244.035 171.017 244.025C156.467 242.345 142.877 245.265 129.477 252.955C112.757 262.585 102.187 276.325 97.1968 294.945C92.2268 313.315 94.3267 330.245 103.617 346.705L103.787 346.965C103.897 347.135 104.007 347.305 104.107 347.485C104.237 347.715 104.367 347.955 104.487 348.205C105.017 349.025 105.557 349.835 106.107 350.625C106.227 350.795 106.337 350.975 106.447 351.155L107.227 352.295L107.217 352.275ZM218.757 380.075C218.777 380.135 218.807 380.195 218.827 380.255C218.807 380.195 218.787 380.135 218.757 380.075ZM218.757 380.055C218.757 380.055 218.757 380.065 218.757 380.075C218.757 380.075 218.757 380.065 218.757 380.055ZM350.217 392.495C335.707 392.495 321.657 388.615 308.247 380.885C292.027 371.515 280.187 358.435 273.047 341.995C271.257 338.025 269.717 333.765 268.457 329.355C268.347 328.965 268.267 328.565 268.217 328.175C262.527 305.955 265.487 284.585 277.027 264.645C288.737 244.385 306.157 231.035 328.807 224.975C345.787 220.435 362.367 220.925 378.117 226.435C378.287 226.485 378.457 226.535 378.627 226.595C378.707 226.625 378.757 226.635 378.767 226.635L379.377 226.715C379.477 226.725 379.587 226.745 379.687 226.765C379.867 226.795 380.047 226.805 380.207 226.795C380.257 226.795 380.307 226.795 380.357 226.795C380.477 226.795 380.617 226.765 380.757 226.735C380.787 226.735 380.817 226.715 380.857 226.715C381.537 226.555 382.067 226.285 382.557 225.835C382.567 225.825 382.577 225.805 382.587 225.795C382.627 225.745 382.657 225.705 382.697 225.655C383.137 225.135 383.377 224.585 383.477 223.885C383.517 223.615 383.567 223.355 383.637 223.095C387.127 202.305 385.887 180.565 379.947 158.465C375.357 141.315 368.427 125.725 359.347 112.105C357.207 108.885 357.667 104.605 360.447 101.915C363.227 99.2252 367.527 98.9152 370.667 101.165C406.517 126.895 430.697 162.275 442.537 206.345C455.307 253.905 450.547 299.835 428.397 342.875C428.307 343.085 428.217 343.295 428.107 343.505L427.167 345.315C426.497 346.665 425.747 348.075 424.937 349.515L424.847 349.725C424.707 350.045 424.547 350.365 424.367 350.665C412.627 370.445 395.327 383.485 372.967 389.435C365.277 391.485 357.697 392.515 350.227 392.515L350.217 392.495ZM284.127 325.945C285.117 329.275 286.307 332.475 287.657 335.465C287.677 335.505 287.687 335.535 287.707 335.575C293.527 349.005 302.867 359.295 316.257 367.025C332.987 376.675 350.187 378.945 368.847 373.955C387.127 369.095 400.697 358.935 410.347 342.915C410.407 342.775 410.467 342.635 410.537 342.495C410.547 342.465 410.587 342.385 410.617 342.335C410.697 342.175 410.777 342.025 410.857 341.875C411.597 340.555 412.277 339.285 412.877 338.075C412.897 338.035 412.917 337.995 412.937 337.965L413.627 336.645C413.707 336.445 413.807 336.245 413.907 336.045C434.407 296.505 438.837 254.255 427.087 210.475C420.007 184.095 408.117 161.125 391.597 141.815C392.997 145.885 394.267 150.045 395.407 154.295C402.027 178.915 403.337 203.225 399.287 226.535C399.247 226.745 399.207 226.955 399.157 227.155C398.527 230.375 397.147 233.275 395.057 235.815C394.687 236.265 394.287 236.715 393.837 237.175C393.797 237.215 393.747 237.265 393.707 237.305C391.107 239.795 388.007 241.465 384.487 242.285C383.427 242.535 382.347 242.695 381.277 242.755C379.877 242.845 378.467 242.775 377.077 242.545L376.657 242.485C375.817 242.375 374.947 242.185 374.077 241.925C373.797 241.855 373.527 241.775 373.257 241.685C360.297 237.055 347.117 236.645 332.957 240.425C314.297 245.415 300.537 255.965 290.897 272.655C281.237 289.335 278.977 306.485 283.967 325.095C284.047 325.375 284.107 325.665 284.147 325.945H284.127ZM410.557 342.465C410.557 342.465 410.557 342.475 410.557 342.485C410.557 342.485 410.557 342.475 410.557 342.465ZM71.8867 243.375C71.1467 243.375 70.397 243.275 69.667 243.055C65.957 241.985 63.5367 238.405 63.9267 234.565C68.3767 190.715 87.0367 152.115 119.367 119.845C154.367 84.9451 196.747 66.1051 245.337 63.8351L247.407 63.6952C247.557 63.6952 247.707 63.6752 247.847 63.6752C249.487 63.5952 251.037 63.5452 252.587 63.5352H253.657C276.707 63.7752 296.627 72.1552 312.927 88.4352C329.517 104.955 337.957 125.205 337.977 148.605C338.027 167.365 332.627 184.185 321.907 198.595C319.297 202.115 316.297 205.575 313.007 208.865C312.787 209.085 312.547 209.295 312.307 209.485C295.847 225.595 275.787 233.765 252.657 233.765H252.607C229.147 233.765 208.847 225.385 192.267 208.875C179.777 196.395 171.887 181.725 168.797 165.275C168.797 165.255 168.797 165.245 168.797 165.225C168.757 165.035 168.717 164.845 168.687 164.645C168.667 164.525 168.647 164.465 168.647 164.465C168.587 164.295 168.527 164.135 168.477 163.965C168.387 163.805 168.287 163.645 168.167 163.495C168.047 163.335 167.927 163.175 167.817 163.005C167.287 162.505 166.737 162.235 165.957 162.105C165.797 162.075 165.627 162.045 165.467 162.015C165.157 162.055 164.847 162.065 164.527 162.065C164.467 162.065 164.337 162.065 164.277 162.065C164.247 162.065 164.187 162.065 164.067 162.095L163.897 162.155C143.857 169.555 125.367 181.625 108.967 198.025C96.4168 210.545 86.3569 224.295 79.0669 238.925C77.6869 241.695 74.8767 243.355 71.9067 243.355L71.8867 243.375ZM252.627 217.785H252.647C271.957 217.785 287.977 211.165 301.627 197.555C301.827 197.355 302.037 197.165 302.257 196.995C304.777 194.425 307.057 191.765 309.057 189.065C317.797 177.325 322.017 164.105 321.977 148.655C321.957 129.375 315.307 113.395 301.627 99.7852C288.187 86.3652 272.477 79.7452 253.577 79.5552H252.627C251.307 79.5552 249.947 79.6052 248.497 79.6752C248.397 79.6752 248.307 79.6752 248.207 79.6852L246.307 79.8052C246.257 79.8052 246.207 79.8052 246.157 79.8052C201.627 81.8652 162.777 99.1452 130.667 131.165C111.317 150.475 97.3068 172.235 88.7768 196.155C91.5868 192.935 94.5369 189.785 97.6269 186.705C115.697 168.635 136.147 155.315 158.417 147.115C158.487 147.085 158.567 147.065 158.637 147.035L159.057 146.885C159.057 146.885 159.157 146.855 159.207 146.835C160.797 146.345 162.417 146.085 164.037 146.065C164.707 146.005 165.387 145.975 166.067 145.995C166.337 145.995 166.627 146.015 166.867 146.045C167.527 146.125 168.137 146.225 168.717 146.345C172.617 147.025 176.027 148.745 178.857 151.455C179.617 152.185 180.297 152.985 180.897 153.835C182.157 155.485 183.127 157.325 183.797 159.285C183.917 159.635 184.007 159.975 184.077 160.325C184.217 160.835 184.327 161.355 184.417 161.875C184.457 162.055 184.487 162.235 184.517 162.415C187.047 175.775 193.267 187.265 203.537 197.535C217.197 211.135 233.247 217.755 252.587 217.755H252.607L252.627 217.785ZM168.737 164.975C168.737 164.975 168.737 164.975 168.737 164.985C168.737 164.985 168.737 164.985 168.737 164.975Z" fill="black"/></svg>